<?xml version="1.0" encoding="UTF-8" standalone="no"?>
<!-- Created with Inkscape (http://www.inkscape.org/) -->

<svg
   width="125.52709mm"
   height="72.111176mm"
   viewBox="0 0 125.52709 72.111177"
   version="1.1"
   id="svg1430"
   inkscape:version="1.1.2 (0a00cf5339, 2022-02-04)"
   sodipodi:docname="cc-handoff.svg"
   inkscape:export-filename="/home/bhavb/Desktop/cc-handoff.png"
   inkscape:export-xdpi="96"
   inkscape:export-ydpi="96"
   xmlns:inkscape="http://www.inkscape.org/namespaces/inkscape"
   xmlns:sodipodi="http://sodipodi.sourceforge.net/DTD/sodipodi-0.dtd"
   xmlns="http://www.w3.org/2000/svg"
   xmlns:svg="http://www.w3.org/2000/svg">
  <sodipodi:namedview
     id="namedview1432"
     pagecolor="#ffffff"
     bordercolor="#999999"
     borderopacity="1"
     inkscape:showpageshadow="0"
     inkscape:pageopacity="0"
     inkscape:pagecheckerboard="0"
     inkscape:deskcolor="#d1d1d1"
     inkscape:document-units="mm"
     showgrid="false"
     inkscape:zoom="0.38583845"
     inkscape:cx="772.34398"
     inkscape:cy="596.10441"
     inkscape:window-width="1600"
     inkscape:window-height="832"
     inkscape:window-x="0"
     inkscape:window-y="0"
     inkscape:window-maximized="1"
     inkscape:current-layer="layer1"
     inkscape:pageshadow="2"
     width="616.37091mm"
     fit-margin-top="0"
     fit-margin-left="0"
     fit-margin-right="0"
     fit-margin-bottom="0" />
  <defs
     id="defs1427" />
  <g
     inkscape:label="Layer 1"
     inkscape:groupmode="layer"
     id="layer1"
     transform="translate(134.8288,-133.10796)"
     style="display:inline">
    <g
       id="g6708"
       style="fill:#1ec3bd;fill-opacity:1"
       inkscape:export-filename="lightver_blue_iiith.png"
       inkscape:export-xdpi="607.04028"
       inkscape:export-ydpi="607.04028"
       transform="translate(-414.17289,-629.96842)">
      <g
         id="g6700"
         style="fill:#1ec3bd;fill-opacity:1">
        <path
           d="m 313.4074,798.04562 q -1.55606,0 -2.68709,-0.67718 -1.12382,-0.67717 -1.73616,-1.89465 -0.60513,-1.21747 -0.60513,-2.83116 0,-1.6137 0.60513,-2.83117 0.61234,-1.21747 1.73616,-1.89465 1.13103,-0.67717 2.68709,-0.67717 1.78659,0 2.99686,0.88609 1.21747,0.88609 1.71454,2.39892 l -1.97389,0.54751 q -0.28816,-0.94372 -0.97254,-1.46241 -0.68437,-0.52589 -1.76497,-0.52589 -0.98695,0 -1.64971,0.43944 -0.65557,0.43944 -0.98695,1.23909 -0.33138,0.79964 -0.33138,1.88024 0,1.08059 0.33138,1.88024 0.33138,0.79964 0.98695,1.23908 0.66276,0.43945 1.64971,0.43945 1.0806,0 1.76497,-0.5259 0.68438,-0.52589 0.97254,-1.4624 l 1.97389,0.5475 q -0.49707,1.51284 -1.71454,2.39893 -1.21027,0.88609 -2.99686,0.88609 z"
           style="font-weight:bold;font-size:144px;font-family:FreeSans;-inkscape-font-specification:'Manrope Ultra-Bold';letter-spacing:-2.5px;word-spacing:3px;white-space:pre;fill:#1ec3bd;fill-opacity:1;stroke-width:0.100055"
           id="path6676" />
        <path
           d="m 319.59762,797.8295 v -10.58986 h 1.95949 v 10.58986 z"
           style="font-weight:bold;font-size:144px;font-family:FreeSans;-inkscape-font-specification:'Manrope Ultra-Bold';letter-spacing:-2.5px;word-spacing:3px;white-space:pre;fill:#1ec3bd;fill-opacity:1;stroke-width:0.100055"
           id="path6678" />
        <path
           d="m 326.36417,798.06002 q -0.91491,0 -1.49123,-0.30977 -0.57632,-0.30977 -0.9005,-0.78523 -0.31697,-0.47547 -0.45385,-0.98695 -0.13687,-0.51869 -0.16569,-0.94372 -0.0288,-0.42504 -0.0288,-0.61954 v -4.36562 h 1.9883 v 3.67403 q 0,0.26655 0.0288,0.68438 0.0288,0.41063 0.1801,0.82846 0.15128,0.41783 0.48987,0.69879 0.34579,0.28095 0.97254,0.28095 0.25214,0 0.5403,-0.0792 0.28816,-0.0792 0.5403,-0.30257 0.25214,-0.23053 0.41062,-0.66997 0.16569,-0.44665 0.16569,-1.16704 l 1.12383,0.53309 q 0,0.92211 -0.37461,1.72896 -0.37461,0.80684 -1.13103,1.30392 -0.74921,0.49707 -1.89464,0.49707 z m 2.52139,-0.23052 v -2.57903 h -0.24494 v -5.20128 h 1.9739 v 7.78031 z"
           style="font-weight:bold;font-size:144px;font-family:FreeSans;-inkscape-font-specification:'Manrope Ultra-Bold';letter-spacing:-2.5px;word-spacing:3px;white-space:pre;fill:#1ec3bd;fill-opacity:1;stroke-width:0.100055"
           id="path6680" />
        <path
           d="m 336.1996,798.04562 q -1.15985,0 -1.93788,-0.5403 -0.77803,-0.5403 -1.17425,-1.46962 -0.38901,-0.92931 -0.38901,-2.09636 0,-1.16704 0.38901,-2.09636 0.38902,-0.92931 1.14544,-1.46961 0.75642,-0.5403 1.86583,-0.5403 1.11662,0 1.94508,0.5331 0.82846,0.53309 1.28231,1.46241 0.46105,0.92211 0.46105,2.11076 0,1.16705 -0.45385,2.09636 -0.44665,0.92932 -1.25349,1.46962 -0.80685,0.5403 -1.88024,0.5403 z m -3.83252,-0.21612 v -10.37374 h 1.97389 v 5.04279 h -0.24494 v 5.33095 z m 3.51554,-1.52725 q 0.63395,0 1.03738,-0.31697 0.40342,-0.31698 0.59793,-0.85007 0.1945,-0.5403 0.1945,-1.19587 0,-0.64835 -0.20171,-1.18145 -0.20171,-0.5403 -0.62674,-0.85727 -0.41784,-0.32418 -1.0734,-0.32418 -0.61234,0 -0.99415,0.29536 -0.37461,0.29536 -0.5475,0.82846 -0.1729,0.53309 -0.1729,1.23908 0,0.70599 0.1729,1.23909 0.17289,0.53309 0.56191,0.82846 0.39622,0.29536 1.05178,0.29536 z"
           style="font-weight:bold;font-size:144px;font-family:FreeSans;-inkscape-font-specification:'Manrope Ultra-Bold';letter-spacing:-2.5px;word-spacing:3px;white-space:pre;fill:#1ec3bd;fill-opacity:1;stroke-width:0.100055"
           id="path6682" />
        <path
           d="m 343.9459,798.04562 q -1.46961,0 -2.37731,-0.66277 -0.9005,-0.66997 -1.09501,-1.88745 l 2.00271,-0.30256 q 0.12247,0.5475 0.5403,0.85727 0.42503,0.30977 1.07339,0.30977 0.5331,0 0.82126,-0.20171 0.28816,-0.20891 0.28816,-0.57632 0,-0.23052 -0.11527,-0.3674 -0.11526,-0.14408 -0.51869,-0.28096 -0.39621,-0.13687 -1.23908,-0.3602 -0.95093,-0.24493 -1.52004,-0.5475 -0.56912,-0.30257 -0.82126,-0.7204 -0.25214,-0.42503 -0.25214,-1.02296 0,-0.74922 0.38182,-1.29672 0.38181,-0.55471 1.07339,-0.85007 0.69879,-0.30257 1.64251,-0.30257 0.9149,0 1.62089,0.28096 0.706,0.28095 1.13823,0.79964 0.43945,0.51869 0.5403,1.22468 l -2.0027,0.3602 q -0.0504,-0.43224 -0.37461,-0.68438 -0.32418,-0.25214 -0.87889,-0.29537 -0.5403,-0.036 -0.87168,0.14408 -0.32418,0.1801 -0.32418,0.51869 0,0.20171 0.13688,0.33859 0.14408,0.13687 0.58352,0.28095 0.44665,0.14408 1.35435,0.37461 0.88609,0.23053 1.41918,0.5403 0.5403,0.30257 0.78524,0.73481 0.24493,0.42503 0.24493,1.03017 0,1.19586 -0.86448,1.88024 -0.86447,0.68438 -2.39172,0.68438 z"
           style="font-weight:bold;font-size:144px;font-family:FreeSans;-inkscape-font-specification:'Manrope Ultra-Bold';letter-spacing:-2.5px;word-spacing:3px;white-space:pre;fill:#1ec3bd;fill-opacity:1;stroke-width:0.100055"
           id="path6684" />
        <path
           d="m 355.92055,798.04562 q -1.55606,0 -2.68709,-0.67718 -1.12382,-0.67717 -1.73616,-1.89465 -0.60514,-1.21747 -0.60514,-2.83116 0,-1.6137 0.60514,-2.83117 0.61234,-1.21747 1.73616,-1.89465 1.13103,-0.67717 2.68709,-0.67717 1.78658,0 2.99685,0.88609 1.21748,0.88609 1.71455,2.39892 l -1.97389,0.54751 q -0.28816,-0.94372 -0.97254,-1.46241 -0.68438,-0.52589 -1.76497,-0.52589 -0.98695,0 -1.64972,0.43944 -0.65556,0.43944 -0.98694,1.23909 -0.33139,0.79964 -0.33139,1.88024 0,1.08059 0.33139,1.88024 0.33138,0.79964 0.98694,1.23908 0.66277,0.43945 1.64972,0.43945 1.08059,0 1.76497,-0.5259 0.68438,-0.52589 0.97254,-1.4624 l 1.97389,0.5475 q -0.49707,1.51284 -1.71455,2.39893 -1.21027,0.88609 -2.99685,0.88609 z"
           style="font-weight:bold;font-size:144px;font-family:FreeSans;-inkscape-font-specification:'Manrope Ultra-Bold';letter-spacing:-2.5px;word-spacing:3px;white-space:pre;fill:#1ec3bd;fill-opacity:1;stroke-width:0.100055"
           id="path6686" />
        <path
           d="m 365.46784,798.04562 q -1.17425,0 -2.06034,-0.5259 -0.88609,-0.52589 -1.38317,-1.448 -0.48987,-0.92931 -0.48987,-2.13238 0,-1.21747 0.50428,-2.13958 0.50428,-0.92931 1.39037,-1.448 0.88609,-0.51869 2.03873,-0.51869 1.17425,0 2.06034,0.52589 0.89329,0.52589 1.39037,1.45521 0.49707,0.92211 0.49707,2.12517 0,1.21027 -0.50428,2.13959 -0.49707,0.92211 -1.39037,1.448 -0.88609,0.51869 -2.05313,0.51869 z m 0,-1.82982 q 0.94372,0 1.40477,-0.63395 0.46826,-0.64115 0.46826,-1.64251 0,-1.03737 -0.47546,-1.65691 -0.46826,-0.61955 -1.39757,-0.61955 -0.64116,0 -1.05178,0.28816 -0.41063,0.28816 -0.61234,0.79965 -0.19451,0.51148 -0.19451,1.18865 0,1.04458 0.46826,1.66412 0.47546,0.61234 1.39037,0.61234 z"
           style="font-weight:bold;font-size:144px;font-family:FreeSans;-inkscape-font-specification:'Manrope Ultra-Bold';letter-spacing:-2.5px;word-spacing:3px;white-space:pre;fill:#1ec3bd;fill-opacity:1;stroke-width:0.100055"
           id="path6688" />
        <path
           d="m 373.64637,798.06002 q -0.9149,0 -1.49122,-0.30977 -0.57632,-0.30977 -0.9005,-0.78523 -0.31698,-0.47547 -0.45385,-0.98695 -0.13688,-0.51869 -0.16569,-0.94372 -0.0288,-0.42504 -0.0288,-0.61954 v -4.36562 h 1.9883 v 3.67403 q 0,0.26655 0.0288,0.68438 0.0288,0.41063 0.1801,0.82846 0.15128,0.41783 0.48987,0.69879 0.34579,0.28095 0.97253,0.28095 0.25214,0 0.5403,-0.0792 0.28816,-0.0792 0.5403,-0.30257 0.25214,-0.23053 0.41063,-0.66997 0.16569,-0.44665 0.16569,-1.16704 l 1.12382,0.53309 q 0,0.92211 -0.3746,1.72896 -0.37461,0.80684 -1.13103,1.30392 -0.74921,0.49707 -1.89465,0.49707 z m 2.5214,-0.23052 v -2.57903 h -0.24494 v -5.20128 h 1.97389 v 7.78031 z"
           style="font-weight:bold;font-size:144px;font-family:FreeSans;-inkscape-font-specification:'Manrope Ultra-Bold';letter-spacing:-2.5px;word-spacing:3px;white-space:pre;fill:#1ec3bd;fill-opacity:1;stroke-width:0.100055"
           id="path6690" />
        <path
           d="m 384.96582,797.8295 v -3.67404 q 0,-0.26654 -0.0288,-0.67717 -0.0288,-0.41783 -0.1801,-0.83566 -0.15129,-0.41783 -0.49708,-0.69879 -0.33858,-0.28096 -0.96533,-0.28096 -0.25214,0 -0.5403,0.0793 -0.28816,0.0792 -0.5403,0.30977 -0.25214,0.22332 -0.41783,0.66277 -0.15849,0.43944 -0.15849,1.16704 l -1.12382,-0.53309 q 0,-0.92211 0.37461,-1.72896 0.37461,-0.80685 1.12382,-1.30392 0.75642,-0.49708 1.90185,-0.49708 0.91491,0 1.49123,0.30978 0.57632,0.30977 0.89329,0.78523 0.32418,0.47546 0.46106,0.99415 0.13687,0.51148 0.16569,0.93652 0.0288,0.42503 0.0288,0.61954 v 4.36562 z m -5.31654,0 v -7.78031 h 1.74337 v 2.57903 h 0.24493 v 5.20128 z"
           style="font-weight:bold;font-size:144px;font-family:FreeSans;-inkscape-font-specification:'Manrope Ultra-Bold';letter-spacing:-2.5px;word-spacing:3px;white-space:pre;fill:#1ec3bd;fill-opacity:1;stroke-width:0.100055"
           id="path6692" />
        <path
           d="m 391.86203,798.04562 q -1.21027,0 -2.07475,-0.5403 -0.86448,-0.5403 -1.32553,-1.46962 -0.46106,-0.92931 -0.46106,-2.09636 0,-1.18145 0.47547,-2.11076 0.48266,-0.92932 1.35434,-1.46241 0.87169,-0.5331 2.06034,-0.5331 1.37597,0 2.30528,0.69879 0.93652,0.69158 1.19586,1.89465 l -1.95948,0.51868 q -0.1729,-0.60513 -0.60514,-0.94372 -0.42503,-0.33859 -0.96533,-0.33859 -0.61954,0 -1.01576,0.30257 -0.39622,0.29537 -0.58353,0.81405 -0.1873,0.51149 -0.1873,1.15984 0,1.01577 0.44665,1.64972 0.45385,0.62674 1.33994,0.62674 0.66277,0 1.00856,-0.30256 0.34579,-0.30257 0.51868,-0.86448 l 2.00271,0.41783 q -0.33138,1.23908 -1.25349,1.90905 -0.92211,0.66998 -2.27646,0.66998 z"
           style="font-weight:bold;font-size:144px;font-family:FreeSans;-inkscape-font-specification:'Manrope Ultra-Bold';letter-spacing:-2.5px;word-spacing:3px;white-space:pre;fill:#1ec3bd;fill-opacity:1;stroke-width:0.100055"
           id="path6694" />
        <path
           d="m 396.51062,788.96859 v -1.72895 h 1.95948 v 1.72895 z m 0,8.86091 v -7.78031 h 1.95948 v 7.78031 z"
           style="font-weight:bold;font-size:144px;font-family:FreeSans;-inkscape-font-specification:'Manrope Ultra-Bold';letter-spacing:-2.5px;word-spacing:3px;white-space:pre;fill:#1ec3bd;fill-opacity:1;stroke-width:0.100055"
           id="path6696" />
        <path
           d="m 400.52523,797.8295 v -10.58986 h 1.95949 v 10.58986 z"
           style="font-weight:bold;font-size:144px;font-family:FreeSans;-inkscape-font-specification:'Manrope Ultra-Bold';letter-spacing:-2.5px;word-spacing:3px;white-space:pre;fill:#1ec3bd;fill-opacity:1;stroke-width:0.100055"
           id="path6698" />
      </g>
      <g
         id="g6706"
         transform="translate(454.00767,744.88943)"
         style="fill:#1ec3bd;fill-opacity:1">
        <path
           id="path6702"
           style="display:inline;opacity:1;fill:#1ec3bd;fill-opacity:1;stroke:none;stroke-width:2.00304;stroke-linecap:round;stroke-linejoin:round;stroke-miterlimit:3;stroke-dasharray:none;stroke-dashoffset:1.13386;stop-color:#000000"
           d="m -157.46503,71.944811 c 0,0 4.07467,11.738913 21.93578,13.345508 l -1.4688,-0.833253 10.13049,-0.18528 -0.81981,0.503058 1.98429,-0.370566 c 3.13071,-0.896779 6.05496,-2.275658 8.69067,-4.0493 l -1.34147,-1.341487 c -4.43977,2.903939 -9.73013,4.626271 -15.43227,4.709693 -2.48617,0.03637 -4.86569,-0.338389 -7.17633,-0.892254 1.62222,0.238868 3.25467,0.449145 4.94673,0.424391 6.18263,-0.09046 11.91546,-1.997865 16.69923,-5.204469 l -1.34253,-1.342522 c -4.42972,2.884693 -9.70233,4.593451 -15.38362,4.676571 -4.04505,0.05917 -7.90327,-0.721702 -11.42127,-2.16439 2.81273,0.795982 5.72716,1.343989 8.79834,1.299048 6.16023,-0.09012 11.87419,-1.984042 16.64747,-5.170311 l -1.34562,-1.345627 c -4.41864,2.863443 -9.67074,4.559636 -15.32875,4.642411 -7.15579,0.104679 -13.65588,-2.484393 -18.77253,-6.701221 z" />
        <path
           id="path6704"
           style="color:#000000;opacity:1;fill:#1ec3bd;fill-opacity:1;stroke-width:2.00304;stroke-linecap:round;stroke-linejoin:round;stroke-miterlimit:3;stroke-dashoffset:1.13386;-inkscape-stroke:none"
           d="m -146.11519,23.516751 c -0.006,4.34e-4 -0.012,5.99e-4 -0.018,0.001 l -5.74272,0.983341 c -13.12227,3.551957 -22.78767,15.54914 -22.78767,29.789065 0,0.526213 0.014,1.048795 0.0405,1.568172 0.84973,13.107436 10.269,21.126572 10.269,21.126572 -3.42064,-4.758431 -3.60815,-11.2328 -3.60815,-17.546172 0,-16.021729 12.96823,-28.989968 28.98997,-28.989968 7.15655,0 13.81101,2.955087 18.86545,7.246316 0,0 -4.67598,-13.832792 -26.00865,-14.178362 z m 2.31136,1.784508 c 2.48645,0 5.01949,0.359841 7.32178,0.947441 -1.61858,-0.262571 -3.40717,-0.44749 -5.09941,-0.44749 -17.03263,0 -30.85937,13.826724 -30.85937,30.859355 0,1.373353 0.22843,2.683853 0.40265,4.009967 -0.46272,-2.057863 -0.75458,-4.181871 -0.75458,-6.380339 0,-16.021732 12.96721,-28.988934 28.98893,-28.988934 z m 2.22237,2.370372 c 4.04549,0 7.89162,0.837046 11.38814,2.33104 -2.80079,-0.837042 -5.70715,-1.427399 -8.77867,-1.427399 -17.03263,0 -30.85936,13.830866 -30.85936,30.863493 -0.11477,2.034481 0.23133,3.540698 0.5279,5.257259 -0.74343,-2.56723 -1.26696,-5.227213 -1.26696,-8.035459 0,-16.021731 12.96721,-28.988934 28.98895,-28.988934 z"
           sodipodi:nodetypes="sccsccssccsssscssscsscssc" />
      </g>
    </g>
    <g
       id="g6748"
       style="fill:#803db2;fill-opacity:1"
       transform="translate(-414.17289,-629.96842)"
       inkscape:export-filename="lightver_blue_iiith.png"
       inkscape:export-xdpi="607.04028"
       inkscape:export-ydpi="607.04028">
      <g
         id="g6736"
         style="fill:#803db2;fill-opacity:1">
        <path
           d="m 309.09941,811.79974 v -10.37373 h 1.95949 v 10.37373 z"
           style="font-weight:bold;font-size:144px;font-family:FreeSans;-inkscape-font-specification:'Manrope Ultra-Bold';letter-spacing:-2.5px;word-spacing:3px;white-space:pre;fill:#803db2;fill-opacity:1;stroke-width:0.100055"
           id="path6710" />
        <path
           d="m 313.11403,811.79974 v -10.37373 h 1.95948 v 10.37373 z"
           style="font-weight:bold;font-size:144px;font-family:FreeSans;-inkscape-font-specification:'Manrope Ultra-Bold';letter-spacing:-2.5px;word-spacing:3px;white-space:pre;fill:#803db2;fill-opacity:1;stroke-width:0.100055"
           id="path6712" />
        <path
           d="m 317.12864,811.79974 v -10.37373 h 1.95948 v 10.37373 z"
           style="font-weight:bold;font-size:144px;font-family:FreeSans;-inkscape-font-specification:'Manrope Ultra-Bold';letter-spacing:-2.5px;word-spacing:3px;white-space:pre;fill:#803db2;fill-opacity:1;stroke-width:0.100055"
           id="path6714" />
        <path
           d="m 323.40531,811.79974 v -8.54392 h -3.27061 v -1.82981 h 8.5007 v 1.82981 h -3.27061 v 8.54392 z"
           style="font-weight:bold;font-size:144px;font-family:FreeSans;-inkscape-font-specification:'Manrope Ultra-Bold';letter-spacing:-2.5px;word-spacing:3px;white-space:pre;fill:#803db2;fill-opacity:1;stroke-width:0.100055"
           id="path6716" />
        <path
           d="m 332.03729,811.79974 v -10.37373 h 1.95949 v 4.26475 h 4.63936 v -4.26475 h 1.95949 v 10.37373 h -1.95949 v -4.27916 h -4.63936 v 4.27916 z"
           style="font-weight:bold;font-size:144px;font-family:FreeSans;-inkscape-font-specification:'Manrope Ultra-Bold';letter-spacing:-2.5px;word-spacing:3px;white-space:pre;fill:#803db2;fill-opacity:1;stroke-width:0.100055"
           id="path6718" />
        <path
           d="m 343.35675,815.25766 1.49842,-4.12068 0.0288,1.21027 -3.38587,-8.32781 h 2.03152 l 2.27646,5.89286 h -0.46105 l 2.26205,-5.89286 h 1.95948 l -4.39443,11.23822 z"
           style="font-weight:bold;font-size:144px;font-family:FreeSans;-inkscape-font-specification:'Manrope Ultra-Bold';letter-spacing:-2.5px;word-spacing:3px;white-space:pre;fill:#803db2;fill-opacity:1;stroke-width:0.100055"
           id="path6720" />
        <path
           d="m 353.19218,812.01586 q -1.0734,0 -1.88024,-0.5403 -0.80685,-0.54029 -1.2607,-1.46961 -0.44665,-0.92931 -0.44665,-2.09636 0,-1.18866 0.45385,-2.11077 0.46106,-0.92931 1.28952,-1.4624 0.82845,-0.5331 1.94507,-0.5331 1.10942,0 1.86583,0.5403 0.75642,0.5403 1.14544,1.46961 0.38901,0.92932 0.38901,2.09636 0,1.16705 -0.39622,2.09636 -0.38901,0.92932 -1.16704,1.46961 -0.77803,0.5403 -1.93787,0.5403 z m 0.31697,-1.74336 q 0.65556,0 1.04458,-0.29536 0.39622,-0.29537 0.56911,-0.82846 0.1729,-0.5331 0.1729,-1.23909 0,-0.70599 -0.1729,-1.23908 -0.17289,-0.5331 -0.5547,-0.82846 -0.37461,-0.29536 -0.98695,-0.29536 -0.65556,0 -1.0806,0.32417 -0.41783,0.31698 -0.61954,0.85728 -0.20171,0.53309 -0.20171,1.18145 0,0.65556 0.19451,1.19586 0.1945,0.5331 0.59793,0.85007 0.40342,0.31698 1.03737,0.31698 z m 1.78659,1.52724 v -5.33094 h -0.24494 v -5.04279 h 1.9739 v 10.37373 z"
           style="font-weight:bold;font-size:144px;font-family:FreeSans;-inkscape-font-specification:'Manrope Ultra-Bold';letter-spacing:-2.5px;word-spacing:3px;white-space:pre;fill:#803db2;fill-opacity:1;stroke-width:0.100055"
           id="path6722" />
        <path
           d="m 362.40807,812.01586 q -1.19586,0 -2.11076,-0.51148 -0.9077,-0.51869 -1.42639,-1.41918 -0.51148,-0.90771 -0.51148,-2.07475 0,-1.27511 0.50427,-2.21883 0.50428,-0.94372 1.39037,-1.46241 0.88609,-0.52589 2.03873,-0.52589 1.22468,0 2.08195,0.57632 0.85728,0.57632 1.2679,1.6209 0.41063,1.04457 0.28816,2.45656 h -1.93787 v -0.7204 q 0,-1.18866 -0.38181,-1.70735 -0.37461,-0.52589 -1.23188,-0.52589 -1.00136,0 -1.47682,0.61234 -0.46826,0.60513 -0.46826,1.79379 0,1.0878 0.46826,1.68573 0.47546,0.59073 1.39037,0.59073 0.57632,0 0.98695,-0.25214 0.41062,-0.25214 0.62674,-0.7276 l 1.95949,0.56191 q -0.43945,1.06619 -1.39037,1.65692 -0.94372,0.59072 -2.06755,0.59072 z m -2.57902,-3.55876 v -1.45521 h 5.15805 v 1.45521 z"
           style="font-weight:bold;font-size:144px;font-family:FreeSans;-inkscape-font-specification:'Manrope Ultra-Bold';letter-spacing:-2.5px;word-spacing:3px;white-space:pre;fill:#803db2;fill-opacity:1;stroke-width:0.100055"
           id="path6724" />
        <path
           d="m 367.30157,811.79974 v -7.7803 h 1.72896 v 1.90185 l -0.18731,-0.24493 q 0.15129,-0.40343 0.40343,-0.73481 0.25214,-0.33138 0.61954,-0.5475 0.28096,-0.1729 0.61234,-0.26655 0.33138,-0.10086 0.68438,-0.12247 0.35299,-0.0288 0.70599,0.0144 v 1.82981 q -0.32418,-0.10085 -0.75642,-0.0648 -0.42504,0.0288 -0.77083,0.1945 -0.34579,0.15849 -0.58352,0.42504 -0.23773,0.25934 -0.3602,0.61954 -0.12247,0.353 -0.12247,0.79964 v 3.9766 z"
           style="font-weight:bold;font-size:144px;font-family:FreeSans;-inkscape-font-specification:'Manrope Ultra-Bold';letter-spacing:-2.5px;word-spacing:3px;white-space:pre;fill:#803db2;fill-opacity:1;stroke-width:0.100055"
           id="path6726" />
        <path
           d="m 375.00464,812.01586 q -0.83566,0 -1.41918,-0.31697 -0.57632,-0.32418 -0.87889,-0.85728 -0.29536,-0.54029 -0.29536,-1.18865 0,-0.5403 0.16569,-0.98695 0.16569,-0.44665 0.5331,-0.78523 0.3746,-0.3458 1.00135,-0.57632 0.43224,-0.15849 1.03017,-0.28096 0.59793,-0.12247 1.35435,-0.23053 0.75642,-0.11526 1.66412,-0.25213 l -0.70599,0.38901 q 0,-0.69158 -0.33139,-1.01576 -0.33138,-0.32418 -1.10941,-0.32418 -0.43224,0 -0.9005,0.20891 -0.46826,0.20892 -0.65556,0.74202 l -1.77218,-0.56192 q 0.29536,-0.96533 1.10941,-1.57046 0.81405,-0.60514 2.21883,-0.60514 1.03017,0 1.82981,0.31698 0.79965,0.31697 1.21027,1.095 0.23053,0.43224 0.27375,0.86448 0.0432,0.43224 0.0432,0.96533 v 4.75463 h -1.71455 v -1.59928 l 0.24494,0.33138 q -0.56912,0.78524 -1.23189,1.13823 -0.65556,0.34579 -1.66412,0.34579 z m 0.41783,-1.54165 q 0.5403,0 0.90771,-0.1873 0.3746,-0.19451 0.59072,-0.43945 0.22333,-0.24493 0.30257,-0.41062 0.15128,-0.31698 0.1729,-0.73481 0.0288,-0.42503 0.0288,-0.70599 l 0.57632,0.14408 q -0.87168,0.14408 -1.41198,0.24494 -0.5403,0.0937 -0.87168,0.17289 -0.33139,0.0792 -0.58353,0.1729 -0.28815,0.11526 -0.46825,0.25214 -0.1729,0.12967 -0.25935,0.28816 -0.0792,0.15848 -0.0792,0.35299 0,0.26655 0.12967,0.46106 0.13688,0.1873 0.38181,0.28816 0.24494,0.10085 0.58352,0.10085 z"
           style="font-weight:bold;font-size:144px;font-family:FreeSans;-inkscape-font-specification:'Manrope Ultra-Bold';letter-spacing:-2.5px;word-spacing:3px;white-space:pre;fill:#803db2;fill-opacity:1;stroke-width:0.100055"
           id="path6728" />
        <path
           d="m 384.81127,812.01586 q -1.15984,0 -1.93787,-0.5403 -0.77803,-0.54029 -1.17425,-1.46961 -0.38902,-0.92931 -0.38902,-2.09636 0,-1.16704 0.38902,-2.09636 0.38901,-0.92931 1.14543,-1.46961 0.75642,-0.5403 1.86583,-0.5403 1.11662,0 1.94508,0.5331 0.82846,0.53309 1.28231,1.4624 0.46105,0.92211 0.46105,2.11077 0,1.16705 -0.45385,2.09636 -0.44665,0.92932 -1.25349,1.46961 -0.80685,0.5403 -1.88024,0.5403 z m -3.83252,-0.21612 v -10.37373 h 1.97389 v 5.04279 h -0.24494 v 5.33094 z m 3.51554,-1.52724 q 0.63395,0 1.03738,-0.31698 0.40342,-0.31697 0.59793,-0.85007 0.19451,-0.5403 0.19451,-1.19586 0,-0.64836 -0.20172,-1.18145 -0.20171,-0.5403 -0.62674,-0.85728 -0.41783,-0.32417 -1.0734,-0.32417 -0.61234,0 -0.99415,0.29536 -0.3746,0.29536 -0.5475,0.82846 -0.1729,0.53309 -0.1729,1.23908 0,0.70599 0.1729,1.23909 0.1729,0.53309 0.56191,0.82846 0.39622,0.29536 1.05178,0.29536 z"
           style="font-weight:bold;font-size:144px;font-family:FreeSans;-inkscape-font-specification:'Manrope Ultra-Bold';letter-spacing:-2.5px;word-spacing:3px;white-space:pre;fill:#803db2;fill-opacity:1;stroke-width:0.100055"
           id="path6730" />
        <path
           d="m 391.8948,812.01586 q -0.83567,0 -1.41919,-0.31697 -0.57632,-0.32418 -0.87888,-0.85728 -0.29537,-0.54029 -0.29537,-1.18865 0,-0.5403 0.16569,-0.98695 0.1657,-0.44665 0.5331,-0.78523 0.37461,-0.3458 1.00135,-0.57632 0.43224,-0.15849 1.03017,-0.28096 0.59793,-0.12247 1.35435,-0.23053 0.75642,-0.11526 1.66412,-0.25213 l -0.70599,0.38901 q 0,-0.69158 -0.33138,-1.01576 -0.33138,-0.32418 -1.10942,-0.32418 -0.43223,0 -0.90049,0.20891 -0.46826,0.20892 -0.65557,0.74202 l -1.77218,-0.56192 q 0.29537,-0.96533 1.10942,-1.57046 0.81405,-0.60514 2.21882,-0.60514 1.03017,0 1.82982,0.31698 0.79964,0.31697 1.21027,1.095 0.23052,0.43224 0.27375,0.86448 0.0432,0.43224 0.0432,0.96533 v 4.75463 h -1.71455 v -1.59928 l 0.24494,0.33138 q -0.56912,0.78524 -1.23188,1.13823 -0.65557,0.34579 -1.66412,0.34579 z m 0.41783,-1.54165 q 0.5403,0 0.9077,-0.1873 0.37461,-0.19451 0.59073,-0.43945 0.22332,-0.24493 0.30256,-0.41062 0.15129,-0.31698 0.1729,-0.73481 0.0288,-0.42503 0.0288,-0.70599 l 0.57631,0.14408 q -0.87168,0.14408 -1.41198,0.24494 -0.5403,0.0937 -0.87168,0.17289 -0.33138,0.0792 -0.58352,0.1729 -0.28816,0.11526 -0.46826,0.25214 -0.1729,0.12967 -0.25934,0.28816 -0.0793,0.15848 -0.0793,0.35299 0,0.26655 0.12967,0.46106 0.13688,0.1873 0.38182,0.28816 0.24493,0.10085 0.58352,0.10085 z"
           style="font-weight:bold;font-size:144px;font-family:FreeSans;-inkscape-font-specification:'Manrope Ultra-Bold';letter-spacing:-2.5px;word-spacing:3px;white-space:pre;fill:#803db2;fill-opacity:1;stroke-width:0.100055"
           id="path6732" />
        <path
           d="m 401.03866,812.01586 q -1.0734,0 -1.88025,-0.5403 -0.80684,-0.54029 -1.26069,-1.46961 -0.44665,-0.92931 -0.44665,-2.09636 0,-1.18866 0.45385,-2.11077 0.46106,-0.92931 1.28951,-1.4624 0.82846,-0.5331 1.94508,-0.5331 1.10941,0 1.86583,0.5403 0.75642,0.5403 1.14544,1.46961 0.38901,0.92932 0.38901,2.09636 0,1.16705 -0.39622,2.09636 -0.38901,0.92932 -1.16704,1.46961 -0.77803,0.5403 -1.93787,0.5403 z m 0.31697,-1.74336 q 0.65556,0 1.04458,-0.29536 0.39622,-0.29537 0.56911,-0.82846 0.1729,-0.5331 0.1729,-1.23909 0,-0.70599 -0.1729,-1.23908 -0.17289,-0.5331 -0.5547,-0.82846 -0.37461,-0.29536 -0.98695,-0.29536 -0.65556,0 -1.0806,0.32417 -0.41783,0.31698 -0.61954,0.85728 -0.20171,0.53309 -0.20171,1.18145 0,0.65556 0.19451,1.19586 0.1945,0.5331 0.59793,0.85007 0.40342,0.31698 1.03737,0.31698 z m 1.78659,1.52724 v -5.33094 h -0.24494 v -5.04279 h 1.9739 v 10.37373 z"
           style="font-weight:bold;font-size:144px;font-family:FreeSans;-inkscape-font-specification:'Manrope Ultra-Bold';letter-spacing:-2.5px;word-spacing:3px;white-space:pre;fill:#803db2;fill-opacity:1;stroke-width:0.100055"
           id="path6734" />
      </g>
      <g
         id="g6746"
         transform="translate(454.00767,744.88943)"
         style="fill:#803db2;fill-opacity:1">
        <path
           id="path6738"
           style="color:#000000;opacity:1;fill:#803db2;fill-opacity:1;stroke-width:2.00304;stroke-linecap:round;stroke-linejoin:round;stroke-miterlimit:3;stroke-dashoffset:1.13386;-inkscape-stroke:none"
           d="m -156.11112,36.048674 c 0,0 -13.10067,4.31045 -13.62397,25.255338 0.016,0.260881 0.0377,0.586348 0.0683,0.923305 l 0.90467,5.283138 c 3.55196,13.122252 15.54916,22.787665 29.78906,22.787665 0.52622,8e-6 1.04881,-0.01382 1.56818,-0.04036 13.10742,-0.849726 20.39244,-9.902775 20.39244,-9.902775 -4.75841,3.420636 -10.49867,3.241925 -16.81204,3.241925 -16.02172,0 -28.98997,-12.968254 -28.98997,-28.98997 0,-7.156541 2.41206,-13.50383 6.7033,-18.558257 z m -7.14943,9.779598 c -0.83703,2.800772 -1.42741,5.70715 -1.42739,8.778659 0,17.032615 13.83088,30.859355 30.86349,30.859355 1.80075,0 3.54071,-0.231331 5.25725,-0.5279 -2.56723,0.74343 -5.2272,1.26696 -8.03546,1.26696 -16.02172,-2e-6 -28.98893,-12.967221 -28.98893,-28.988935 0,-4.04549 0.83705,-7.891633 2.33104,-11.388139 z m -3.70462,6.447621 c -0.26256,1.618558 -0.49683,3.248268 -0.49683,4.940518 0,17.032614 13.82673,30.859353 30.85934,30.859355 1.37337,-2e-6 2.68387,-0.228426 4.00998,-0.402652 -2.05786,0.462729 -4.18188,0.754584 -6.38035,0.754586 -16.02172,-2e-6 -28.98893,-12.967221 -28.98893,-28.988935 0,-2.486432 0.4092,-4.860588 0.99679,-7.162872 z" />
        <path
           id="path6740"
           style="display:inline;opacity:1;fill:#803db2;fill-opacity:1;stroke:none;stroke-width:2.00304;stroke-linecap:round;stroke-linejoin:round;stroke-miterlimit:3;stroke-dasharray:none;stroke-dashoffset:1.13386;stop-color:#000000"
           d="m -136.60678,18.192212 c -19.06119,0.144479 -27.3566,12.742045 -27.3566,12.742045 5.11666,-4.216824 13.14973,-6.022328 20.30551,-5.91765 9.819,0.143658 18.41839,5.142331 23.55157,12.678906 l 1.33631,-1.337346 c -5.49054,-7.861103 -14.55045,-13.064244 -24.86098,-13.215086 -3.07117,-0.04495 -5.98561,0.50306 -8.79831,1.299048 3.51797,-1.442686 7.3762,-2.223559 11.42125,-2.16439 9.84221,0.143998 18.45821,5.165592 23.58676,12.731698 l 1.33839,-1.337347 c -5.48681,-7.889448 -14.56461,-13.11359 -24.89823,-13.264771 -1.69207,-0.02476 -3.32554,0.185521 -4.94776,0.424391 2.31062,-0.553863 4.69119,-0.928629 7.17736,-0.892254 9.86324,0.144298 18.49531,5.188216 23.61989,12.78138 l 1.33837,-1.338382 c -4.00487,-5.780438 -9.93556,-10.135972 -16.87621,-12.124092 l -5.48914,-1.022676 z" />
        <path
           style="opacity:1;fill:#803db2;fill-opacity:1;stroke:none;stroke-width:2.00304;stroke-linecap:round;stroke-linejoin:round;stroke-miterlimit:3;stroke-dasharray:none;stroke-dashoffset:1.13386;stop-color:#000000"
           d="m -131.03694,20.262473 1.52851,-0.596648 c 0,0 -2.49556,-1.059758 -6.96621,-1.440635 -4.47066,-0.380879 -12.25946,2.208665 -12.25946,2.208665 l 9.75673,-0.873975 z"
           id="path6742"
           sodipodi:nodetypes="ccsccc" />
        <path
           style="opacity:1;fill:#803db2;fill-opacity:1;stroke:none;stroke-width:2.00304;stroke-linecap:round;stroke-linejoin:round;stroke-miterlimit:3;stroke-dasharray:none;stroke-dashoffset:1.13386;stop-color:#000000"
           d="m -168.76209,67.510455 c 0,0 -0.78148,-3.711636 -0.90467,-5.28314 -0.13881,-1.770197 0.54781,-2.573254 0.54781,-2.573254 l 1.22269,6.067615 z"
           id="path6744"
           sodipodi:nodetypes="csccc" />
      </g>
    </g>
  </g>
</svg>
